<svg height="100" width="100" xmlns="http://www.w3.org/2000/svg" viewBox="-429 231 100 100" style="enable-background:new -429 231 100 100" xml:space="preserve"><path d="M-339.3 282.1c0 21.9-17.9 39.8-39.8 39.8-22.2 0-40.1-17.9-40.1-39.8 0-22.2 17.9-40.1 40.1-40.1 21.9 0 39.8 17.9 39.8 40.1zm-23.3-5.9c0-9.1-7.5-16.6-16.6-16.6-9.4 0-16.8 7.5-16.8 16.6 0 9.4 7.5 16.8 16.8 16.8 9.1 0 16.6-7.4 16.6-16.8zm9.4 35.8c-5.1-10.2-15-16.8-26.7-16.8-11.5 0-21.1 6.4-26.5 15.8 7.2 6.7 16.8 10.7 27.3 10.7 9.8 0 18.6-3.8 25.9-9.7z" style="fill:none;stroke:#000;stroke-width:2;stroke-miterlimit:10"/></svg>