<svg xmlns="http://www.w3.org/2000/svg" viewBox="0 0 90 90" xml:space="preserve"><path d="M50.325 35.745c4.385 0 8.703 1.914 12.391 5.44a2.275 2.275 0 0 1 .15 3.281 2.267 2.267 0 0 1-3.281.005c-3.01-2.884-6.172-4.189-9.26-4.189-3.084 0-6.24 1.305-9.25 4.189a2.243 2.243 0 0 1-1.635.646c-2.031-.052-2.98-2.545-1.49-3.933 3.682-3.526 7.994-5.439 12.375-5.439zm9.447-8.953a3.289 3.289 0 0 1 0 6.579 3.284 3.284 0 0 1-3.281-3.287 3.289 3.289 0 0 1 3.281-3.292zm-18.884 0a3.288 3.288 0 0 1 3.281 3.292 3.284 3.284 0 1 1-6.568 0 3.29 3.29 0 0 1 3.287-3.292zM10.497 5.274c-4.422.125-5.125 6.797-.844 7.961l5.584 1.972 6.568 34.257c.785 4.1 2.088 7.809 3.904 11.001 2.672 4.701 7.313 8.17 13.037 8.17h28.428c5.129.093 5.129-8.118 0-8.024H38.747c-4.047-.516-5.725-2.555-7.209-5.545H69.06c3.443 0 5.365-3.057 6.213-6.593l8.209-27.93c.438-4.591-1.994-5.498-6.25-5.498l-53.906.041-1.447-4.429c-.391-1.319-1.391-2.337-2.646-2.691l-8.736-2.692zM64.925 72.724c-3.355 0-6.078 2.729-6.078 6.088 0 3.364 2.723 6.092 6.078 6.092a6.087 6.087 0 0 0 6.082-6.092 6.087 6.087 0 0 0-6.082-6.088zm-24.24 0a6.089 6.089 0 0 0-6.084 6.088c0 3.364 2.725 6.092 6.084 6.092s6.078-2.728 6.078-6.092c0-3.359-2.719-6.088-6.078-6.088z" style="fill:#a00"/></svg>