<svg xmlns="http://www.w3.org/2000/svg" viewBox="0 0 100 100" xml:space="preserve"><path d="M5 5v32.5h39.604C41.73 33.538 32.501 32.207 32.5 27.055c0-2.147 2.406-4.554 4.553-4.555 5.153 0 6.483 9.231 10.447 12.104V5H5zm47.5 0v29.604C56.464 31.731 57.794 22.5 62.947 22.5c2.147 0 4.553 2.408 4.553 4.555-.001 5.152-9.23 6.483-12.104 10.445H95V5H52.5zM5 42.5v39.285L11.785 75h1.168L5 82.953v9.428L22.381 75h1.143L5 93.523v1.476h7.953l20-20h1.19l-20 20h9.427l20-20h1.143l-20 20h9.43l20.001-20h1.14l-20 20h9.43l20-20h1.118l-20 20h9.431l20-20h1.166l-20 20h9.428l20-20h1.143L67 95h9.427L95 76.427V42.5H55.396C58.27 46.464 67.5 47.793 67.5 52.947c0 2.146-2.406 4.552-4.552 4.552-5.154 0-6.484-9.23-10.447-12.104V75h-5V45.395C43.537 48.268 42.207 57.5 37.054 57.5c-2.147 0-4.553-2.406-4.553-4.552 0-5.154 9.23-6.484 12.104-10.447H5zm90 35.094L77.594 95h9.43L95 87.023v-9.43zm0 10.598-6.809 6.809H95v-6.809z" color="#000" fill="currentColor" stroke="currentColor" overflow="visible" style="isolation:auto;paint-order:normal;fill:green"/></svg>