<svg xmlns="http://www.w3.org/2000/svg" viewBox="0 0 100 100" xml:space="preserve"><path style="color:#000;isolation:auto;color-interpolation:sRGB;color-interpolation-filters:linearRGB;paint-order:normal;color-rendering:auto;image-rendering:auto;shape-rendering:auto;enable-background:accumulate" d="M5 5v32.5h39.604C41.73 33.538 32.5 32.207 32.5 27.055c0-2.147 2.406-4.555 4.553-4.555 5.153 0 6.483 9.23 10.447 12.104V5H5Zm47.5 0v29.604c3.964-2.873 5.294-12.105 10.447-12.104 2.147 0 4.553 2.408 4.553 4.555-.001 5.152-9.23 6.483-12.104 10.445H95V5H52.5ZM5 42.5v39.285L11.785 75h1.168L5 82.953v9.428L22.38 75h1.143L5 93.523V95h7.953l20-20h1.19l-20 20h9.427l20-20h1.143l-20 20h9.43l20.002-20h1.14l-20 20h9.43l20-20h1.117l-20 20h9.432l20-20h1.166l-20 20h9.427l20-20H87L67 95h9.428L95 76.428V42.5H55.396C58.27 46.464 67.5 47.794 67.5 52.947c0 2.147-2.406 4.553-4.553 4.553-5.153 0-6.483-9.23-10.447-12.104V75h-5V45.396C43.536 48.27 42.206 57.5 37.053 57.5c-2.147 0-4.553-2.406-4.553-4.553 0-5.153 9.23-6.483 12.104-10.447H5Zm90 35.094L77.594 95h9.43L95 87.023v-9.43Zm0 10.597L88.191 95H95v-6.809Z" overflow="visible" fill="currentColor" stroke="currentColor"/></svg>