<svg xmlns="http://www.w3.org/2000/svg" data-name="Слой 1" viewBox="0 0 128 128"><path d="M128 56a2 2 0 0 0-.07-.48.56.56 0 0 0 0-.12 2.63 2.63 0 0 0-.15-.35.53.53 0 0 0-.06-.1 1.74 1.74 0 0 0-.3-.37l-.06-.05a1.43 1.43 0 0 0-.24-.19L115 46.52V2a2 2 0 0 0-2-2H15a2 2 0 0 0-2 2v44.53h-.08l-12 7.74a1.55 1.55 0 0 0-.24.19l-.06.05a2.17 2.17 0 0 0-.31.37v.1a2.63 2.63 0 0 0-.15.35.56.56 0 0 0 0 .12A2 2 0 0 0 0 56v70a2 2 0 0 0 2 2h124a2 2 0 0 0 2-2V56Zm-5.58.09L115 61.27v-10ZM111 4v60.06L72.31 91.2a14.53 14.53 0 0 1-16.62 0L17 64.07V4ZM13 51.28v10l-7.42-5.2ZM124 124H4V59.84l49.4 34.64a18.54 18.54 0 0 0 21.2 0L124 59.84Z" style="fill:#d40000"/><path d="M62.56 69.39A2 2 0 0 0 64 70a2 2 0 0 0 1.44-.61l19-19.6a13.94 13.94 0 0 0-19.73-19.72l-.74.74-.72-.72a13.92 13.92 0 0 0-19.71 19.66ZM46.39 32.92a9.93 9.93 0 0 1 14 0l2.13 2.13a2 2 0 0 0 1.42.59 2 2 0 0 0 1.41-.59l2.16-2.15A9.95 9.95 0 0 1 81.58 47L64 65.13 46.39 47a9.93 9.93 0 0 1 0-14.08Z" style="fill:#d40000"/></svg>