<svg xmlns="http://www.w3.org/2000/svg" viewBox="0 0 100 100" style="enable-background:new 0 0 100 100" xml:space="preserve"><switch style="fill:green"><g style="fill:green"><g style="fill:green"><path d="M94.6 18.9c-2.1-.5-4.2.7-4.7 2.8L81.4 55H34.2L22.6 7.8c-.4-1.7-2-2.9-3.7-2.9H6.3c-2.1 0-3.8 1.7-3.8 3.8s1.7 3.8 3.8 3.8h9.5l15.7 64c.4 1.7 2 2.9 3.7 2.9h43c2.1 0 3.8-1.7 3.8-3.8s-1.7-3.8-3.8-3.8h-40l-2.2-9h48.3c1.8 0 3.3-1.2 3.7-2.9l9.2-36.2c.7-2.1-.5-4.2-2.6-4.8z" style="fill:green"/><circle cx="42.6" cy="88.9" r="6.2" style="fill:green"/><circle cx="72.8" cy="88.9" r="6.2" style="fill:green"/><path d="M57.9 47c11.2 0 20.3-9.1 20.3-20.3S69.1 6.4 57.9 6.4s-20.3 9.1-20.3 20.3S46.7 47 57.9 47zm-9.2-22.8c1.3-1.1 3.2-.9 4.2.4l3 3.6 6.9-8.2c1.1-1.3 3-1.4 4.2-.4 1.3 1.1 1.4 3 .4 4.2l-9.2 11c-.6.7-1.4 1.1-2.3 1.1s-1.7-.4-2.3-1.1l-5.3-6.3c-1-1.3-.9-3.2.4-4.3z" style="fill:green"/></g></g></switch></svg>