<svg xmlns="http://www.w3.org/2000/svg" viewBox="0 0 91 91" xml:space="preserve"><path d="M70.029 26.18c0 1.156.938 2.094 2.094 2.094h8.758v32.615a2.095 2.095 0 0 0 4.188 0V26.18a2.095 2.095 0 0 0-2.094-2.094H72.123a2.095 2.095 0 0 0-2.094 2.094zM6.553 90.441h78.725a5.448 5.448 0 0 0 5.443-5.443v-2.539a5.448 5.448 0 0 0-5.443-5.443h-.209v-6.787a2.095 2.095 0 0 0-4.188 0v6.787H10.949V28.274h9.016a2.095 2.095 0 0 0 0-4.188H8.855a2.095 2.095 0 0 0-2.094 2.094v50.835h-.208a5.45 5.45 0 0 0-5.445 5.443v2.539a5.45 5.45 0 0 0 5.445 5.444zm-1.258-7.982a1.26 1.26 0 0 1 1.258-1.256h28.826a2.088 2.088 0 0 0 2.082 1.986h16.58a2.088 2.088 0 0 0 2.082-1.986h29.155c.693 0 1.256.564 1.256 1.256v2.539c0 .693-.563 1.256-1.256 1.256H6.553a1.259 1.259 0 0 1-1.258-1.256v-2.539z"/><path d="M19.965 35.231a2.095 2.095 0 0 0 0-4.188h-3.678a2.095 2.095 0 0 0-2.094 2.094V71.1c0 1.156.938 2.094 2.094 2.094h59.254a2.095 2.095 0 0 0 2.094-2.094V33.137a2.095 2.095 0 0 0-2.094-2.094h-3.418a2.095 2.095 0 0 0 0 4.188h1.324v33.775H18.381V35.231h1.584z"/><path d="M26.967 4.383a2.095 2.095 0 0 0-2.094 2.094v53.318c0 1.156.938 2.096 2.094 2.096h37.896a2.096 2.096 0 0 0 2.094-2.096V6.477a2.095 2.095 0 0 0-2.094-2.094H26.967zM62.77 17.198v31.88c-4.242.688-7.635 4.164-8.455 8.623H37.518c-.822-4.461-4.213-7.938-8.457-8.625V17.198c4.244-.686 7.637-4.164 8.457-8.627h16.797c.82 4.461 4.212 7.939 8.455 8.627zM33.217 8.571c-.633 2.123-2.199 3.771-4.156 4.348V8.571h4.156zm-4.156 44.786c1.957.574 3.523 2.223 4.156 4.344h-4.156v-4.344zm29.554 4.344c.633-2.121 2.197-3.768 4.154-4.344v4.344h-4.154zm4.155-44.783c-1.957-.578-3.521-2.225-4.156-4.348h4.156v4.348z"/><path d="M30.098 32.706c0 8.543 7.117 15.494 15.867 15.494s15.869-6.951 15.869-15.494-7.119-15.494-15.869-15.494-15.867 6.951-15.867 15.494zm18.179 2.515.041.008.453.092c.848.488 1.15.877 1.18.912v.199c0 .621-.666 1.299-1.674 1.5v-2.711zm-5.291-5.357c-.961-.549-1.105-.881-1.109-.865v-.191c0-.727.906-1.529 2.213-1.557v2.838l-1.104-.225zm-8.701 2.842c0-5.863 4.635-10.695 10.543-11.252a2.078 2.078 0 0 0-.738 1.584v.023c-3.535.031-6.4 2.596-6.4 5.746v.195c0 1.281.623 3.139 3.592 4.701.176.092.363.16.557.199l.15.031c.016.002.027.01.043.014l2.059.418v3.627c-1.309-.029-2.215-.834-2.215-1.561a2.095 2.095 0 0 0-4.188 0c0 3.152 2.867 5.717 6.402 5.75v.191c0 .635.289 1.197.736 1.582-5.908-.555-10.541-5.387-10.541-11.248zm23.361 0c0 5.686-4.365 10.393-10.018 11.178.398-.381.648-.914.648-1.51v-.217c3.283-.271 5.861-2.734 5.861-5.725v-.199c0-1.283-.635-3.15-3.66-4.75-.055-.029-.117-.039-.174-.063-.074-.035-.152-.059-.232-.084-.053-.016-.1-.045-.154-.055l-.42-.086-1.221-.25v-3.637c1.014.201 1.682.877 1.682 1.498a2.095 2.095 0 0 0 4.188 0c0-2.988-2.582-5.451-5.869-5.723v-.047c0-.596-.252-1.129-.65-1.512 5.654.787 10.019 5.494 10.019 11.182zM18.367 2.922v6.492a2.095 2.095 0 0 0 4.188 0V2.922a2.095 2.095 0 0 0-4.188 0zM18.367 16.219a2.095 2.095 0 0 0 4.188 0v-.523a2.095 2.095 0 0 0-4.188 0v.523zM72.596 10.356a2.095 2.095 0 0 0-2.094 2.094v5.549a2.095 2.095 0 0 0 4.188 0V12.45a2.095 2.095 0 0 0-2.094-2.094zM70.188 6.274v.203a2.095 2.095 0 0 0 4.188 0v-.203a2.095 2.095 0 0 0-4.188 0zM12.924 21.034a2.095 2.095 0 0 0 2.094-2.094V8.368a2.095 2.095 0 0 0-4.188 0V18.94c0 1.156.938 2.094 2.094 2.094z"/></svg>