<svg xmlns="http://www.w3.org/2000/svg" viewBox="0 0 24 24" xml:space="preserve"><path fill-rule="evenodd" clip-rule="evenodd" d="M6.188 13.729a2.07 2.07 0 1 1 .001 4.141 2.07 2.07 0 0 1-.001-4.141zm8.565-5.294a.188.188 0 0 0-.188.188v5.435h-.518V6.365a.235.235 0 0 0-.235-.235H2.235A.235.235 0 0 0 2 6.365v7.694h-.118a.685.685 0 0 0-.683.683v.376c0 .376.307.683.683.683h.542v1.082c.408 0 1.082-.646 1.082-1.082a2.683 2.683 0 0 1 5.365 0h5.72v1.082c.408 0 1.082-.646 1.082-1.082a2.683 2.683 0 0 1 5.366 0h1.079a.685.685 0 0 0 .683-.683v-.376a.685.685 0 0 0-.683-.683H21.6v-1.012l-2.446-4.423c-.051-.091-.085-.188-.188-.188h-4.213v-.001zm1.388 1.462h2.026c.104 0 .136.1.188.188l1.106 1.877c.052.089-.086.201-.188.188l-3.133-.398c-.102-.013-.188-.084-.188-.188v-1.479a.19.19 0 0 1 .189-.188zm2.214 3.832a2.07 2.07 0 1 1 0 4.14 2.07 2.07 0 0 1 0-4.14zm0 1.024a1.047 1.047 0 1 1 0 2.095 1.047 1.047 0 0 1 0-2.095zm-12.167 0a1.047 1.047 0 1 0 0 2.095 1.047 1.047 0 0 0 0-2.095z" style="fill:green"/></svg>